<svg width="119" height="14" viewBox="0 0 119 14" fill="none" xmlns="http://www.w3.org/2000/svg">
<line x1="118.541" y1="7.21853" x2="0.612602" y2="7.21854" stroke="#CBCBCB" stroke-width="0.842342" stroke-dasharray="4.21 4.21"/>
<path d="M58.8074 2.27669L57.6787 4.89918L57.4316 5.4832C57.3866 5.57305 57.2687 5.65167 57.1676 5.65167H55.4493C54.9102 5.65167 54.27 6.05038 54.0229 6.53332C53.9387 6.70179 53.9387 6.90395 54.0229 7.07242C54.27 7.54975 54.9158 7.94846 55.4549 7.94846H57.1733C57.2743 7.94846 57.3923 8.02708 57.4372 8.11693L58.813 11.3178C58.959 11.6716 59.4027 11.958 59.7845 11.958H60.5258C61.0031 11.958 61.239 11.5986 61.048 11.155L59.8351 8.34155C59.7396 8.12254 59.8575 7.94284 60.099 7.94284H60.7223L61.7331 7.94284C61.8623 7.94284 62.0476 8.01585 62.1375 8.1057L63.4459 9.40852C63.5807 9.54329 63.8446 9.60506 64.0355 9.54329L64.7993 9.29059C65.1306 9.18951 65.2878 8.81326 65.1306 8.5044L64.0075 7.16789C63.8334 6.96573 63.8334 6.6344 64.0075 6.43224L65.1306 5.09573C65.2822 4.78687 65.1306 4.41062 64.7993 4.29831L64.0355 4.04561C63.8502 3.98383 63.5807 4.04561 63.4459 4.18038L62.1375 5.4832C62.0476 5.57867 61.8623 5.65167 61.7331 5.65167L60.099 5.65167C59.8575 5.65167 59.7452 5.47759 59.8351 5.25296L61.048 2.43954C61.239 1.99591 61.0031 1.63651 60.5258 1.63651H59.7845C59.4027 1.63651 58.959 1.9229 58.8074 2.27669Z" fill="#1D91CC"/>
</svg>
