<svg width="14" height="16" viewBox="0 0 14 16" fill="none" xmlns="http://www.w3.org/2000/svg">
<path d="M2.615 16.0005C2.16833 16.0005 1.78733 15.8431 1.472 15.5285C1.15733 15.2138 1 14.8328 1 14.3855V2.00047H0V1.00047H4V0.230469H10V1.00047H14V2.00047H13V14.3855C13 14.8455 12.846 15.2295 12.538 15.5375C12.2293 15.8461 11.845 16.0005 11.385 16.0005H2.615ZM12 2.00047H2V14.3855C2 14.5648 2.05767 14.7121 2.173 14.8275C2.28833 14.9428 2.43567 15.0005 2.615 15.0005H11.385C11.5383 15.0005 11.6793 14.9365 11.808 14.8085C11.936 14.6798 12 14.5388 12 14.3855V2.00047ZM4.808 13.0005H5.808V4.00047H4.808V13.0005ZM8.192 13.0005H9.192V4.00047H8.192V13.0005Z" fill="#EF3826"/>
</svg>
