<svg width="20" height="20" viewBox="0 0 20 20" fill="none" xmlns="http://www.w3.org/2000/svg">
<path d="M16.25 10C16.25 9.83424 16.3158 9.67527 16.4331 9.55806C16.5503 9.44085 16.7092 9.375 16.875 9.375C17.0408 9.375 17.1997 9.44085 17.3169 9.55806C17.4342 9.67527 17.5 9.83424 17.5 10V16.875C17.5 17.0408 17.4342 17.1997 17.3169 17.3169C17.1997 17.4342 17.0408 17.5 16.875 17.5H3.125C2.95924 17.5 2.80027 17.4342 2.68306 17.3169C2.56585 17.1997 2.5 17.0408 2.5 16.875V3.125C2.5 2.95924 2.56585 2.80027 2.68306 2.68306C2.80027 2.56585 2.95924 2.5 3.125 2.5H10C10.1658 2.5 10.3247 2.56585 10.4419 2.68306C10.5592 2.80027 10.625 2.95924 10.625 3.125C10.625 3.29076 10.5592 3.44973 10.4419 3.56694C10.3247 3.68415 10.1658 3.75 10 3.75H3.75V16.25H16.25V10Z" fill="#4880FF"/>
<path d="M9.17873 10.8241L10.21 10.6766L16.545 4.34284C16.6047 4.28519 16.6523 4.21622 16.685 4.13997C16.7178 4.06372 16.735 3.9817 16.7358 3.89872C16.7365 3.81573 16.7207 3.73343 16.6892 3.65662C16.6578 3.57981 16.6114 3.51003 16.5527 3.45134C16.494 3.39266 16.4243 3.34625 16.3475 3.31483C16.2706 3.2834 16.1883 3.26759 16.1054 3.26831C16.0224 3.26903 15.9404 3.28627 15.8641 3.31903C15.7878 3.35178 15.7189 3.3994 15.6612 3.45909L9.32498 9.79284L9.17748 10.8241H9.17873ZM17.4287 2.57409C17.603 2.74822 17.7412 2.95497 17.8355 3.18253C17.9298 3.4101 17.9783 3.65401 17.9783 3.90034C17.9783 4.14667 17.9298 4.39059 17.8355 4.61815C17.7412 4.84571 17.603 5.05247 17.4287 5.22659L10.9475 11.7078C10.8519 11.8038 10.7278 11.8661 10.5937 11.8853L8.53123 12.1803C8.43511 12.1941 8.3371 12.1854 8.24496 12.1547C8.15283 12.124 8.06911 12.0723 8.00044 12.0036C7.93178 11.935 7.88006 11.8512 7.84938 11.7591C7.81871 11.667 7.80993 11.569 7.82373 11.4728L8.11873 9.41034C8.13767 9.27646 8.19951 9.15234 8.29498 9.05659L14.7775 2.57534C15.1291 2.22383 15.6059 2.02637 16.1031 2.02637C16.6003 2.02637 17.0771 2.22383 17.4287 2.57534V2.57409Z" fill="#4880FF"/>
</svg>
