<svg width="30" height="30" viewBox="0 0 30 30" fill="none" xmlns="http://www.w3.org/2000/svg">
<path d="M16.751 4.28291L18.8984 8.57756C19.1912 9.17539 19.972 9.74882 20.6309 9.85863L24.5229 10.5053C27.0118 10.9201 27.5975 12.7258 25.804 14.5071L22.7782 17.5329C22.2658 18.0453 21.9851 19.0336 22.1438 19.7412L23.01 23.4868C23.6932 26.4516 22.1194 27.5985 19.4962 26.049L15.8482 23.8894C15.1894 23.499 14.1035 23.499 13.4325 23.8894L9.78444 26.049C7.17349 27.5985 5.5874 26.4394 6.27064 23.4868L7.13689 19.7412C7.2955 19.0336 7.01488 18.0453 6.50245 17.5329L3.47668 14.5071C1.69537 12.7258 2.26881 10.9201 4.75775 10.5053L8.64977 9.85863C9.29641 9.74882 10.0773 9.17539 10.3701 8.57756L12.5174 4.28291C13.6887 1.95257 15.592 1.95257 16.751 4.28291Z" stroke="#DABE28" stroke-width="1.5787" stroke-linecap="round" stroke-linejoin="round"/>
</svg>
