<svg width="18" height="18" viewBox="0 0 18 18" fill="none" xmlns="http://www.w3.org/2000/svg">
<path d="M10.5459 2.87169L11.7993 5.37839C11.9702 5.72734 12.426 6.06204 12.8105 6.12613L15.0822 6.50356C16.535 6.74568 16.8768 7.79964 15.8299 8.83935L14.0639 10.6054C13.7648 10.9045 13.601 11.4814 13.6935 11.8944L14.1992 14.0806C14.598 15.8111 13.6793 16.4805 12.1482 15.5761L10.019 14.3156C9.6344 14.0878 9.00061 14.0878 8.60893 14.3156L6.47966 15.5761C4.9557 16.4805 4.02993 15.804 4.42872 14.0806L4.93433 11.8944C5.02691 11.4814 4.86312 10.9045 4.56403 10.6054L2.79794 8.83935C1.75823 7.79964 2.09293 6.74568 3.54568 6.50356L5.81738 6.12613C6.19481 6.06204 6.65057 5.72734 6.82148 5.37839L8.07483 2.87169C8.75848 1.51152 9.8694 1.51152 10.5459 2.87169Z" fill="#DABE29" stroke="#DABE28" stroke-width="0.921455" stroke-linecap="round" stroke-linejoin="round"/>
</svg>
