<svg width="32" height="32" viewBox="0 0 32 32" fill="none" xmlns="http://www.w3.org/2000/svg">
<path d="M20.5597 30.0668C20.853 30.0668 21.1597 30.0134 21.4397 29.8934C22.0664 29.6268 22.5464 29.1068 22.7597 28.4534L23.3464 26.6934C23.613 25.8934 23.373 24.8934 22.7864 24.2934L19.7597 21.2534C19.7197 21.2134 19.6664 21.0668 19.6664 21.0001V17.7068L25.7464 20.3334C26.5597 20.6801 27.3864 20.6401 28.013 20.2268C28.6397 19.8134 29.013 19.0668 29.013 18.2001V16.4801C29.013 15.1734 28.0797 13.7734 26.893 13.3068L19.6797 10.1868V6.40009C19.6797 4.78676 18.5464 2.93342 17.1064 2.18676C16.413 1.84009 15.613 1.84009 14.933 2.18676C13.4797 2.93342 12.3464 4.77342 12.3464 6.38676V10.1734L5.09302 13.2934C3.90635 13.8001 2.99969 15.1601 2.99969 16.4801V18.2001C2.99969 19.0801 3.35969 19.8134 3.99969 20.2268C4.63969 20.6401 5.45302 20.6801 6.26636 20.3468L12.3464 17.7201V21.0134C12.3464 21.0668 12.293 21.2001 12.253 21.2401L9.21302 24.2934C8.62636 24.8801 8.38636 25.9068 8.65302 26.6934L9.23969 28.4534C9.46636 29.1068 9.94636 29.6268 10.5864 29.8801C11.213 30.1334 11.9064 30.1068 12.5064 29.8134C12.573 29.7734 12.6397 29.7334 12.7064 29.6801L15.813 27.0668C15.9197 26.9734 16.133 26.9868 16.2264 27.0668L19.333 29.6801C19.3864 29.7334 19.453 29.7734 19.5197 29.8001C19.8397 29.9868 20.1997 30.0668 20.5597 30.0668ZM19.253 15.5201C18.9464 15.5201 18.653 15.6001 18.3997 15.7734C17.933 16.0801 17.6664 16.6001 17.6664 17.2134V21.0134C17.6664 21.5868 17.9464 22.2668 18.3464 22.6668L21.373 25.7068C21.4264 25.7734 21.4797 25.9734 21.453 26.0534L20.8664 27.8268C20.8264 27.9601 20.733 28.0134 20.6797 28.0401C20.6397 28.0534 20.573 28.0801 20.493 28.0534L17.5064 25.5334C16.6664 24.8134 15.3464 24.8134 14.5064 25.5334L11.533 28.0401C11.4397 28.0534 11.373 28.0401 11.333 28.0268C11.2797 28.0001 11.173 27.9468 11.133 27.8134L10.5464 26.0534C10.5197 25.9601 10.573 25.7601 10.6264 25.7068L13.653 22.6668C14.053 22.2934 14.3464 21.6001 14.3464 21.0134V17.2134C14.3464 16.6134 14.093 16.0934 13.6397 15.7868C13.1864 15.4801 12.5997 15.4401 12.0397 15.6801L5.47969 18.5068C5.27969 18.5868 5.14635 18.5868 5.10636 18.5601C5.06635 18.5334 5.01302 18.4134 5.01302 18.2001V16.4801C5.01302 15.9734 5.43969 15.3201 5.89302 15.1334L13.333 11.9201C13.9197 11.6668 14.333 11.0268 14.333 10.3868V6.38676C14.333 5.50676 15.0264 4.37342 15.8264 3.97342C15.933 3.92009 16.0664 3.92009 16.1864 3.97342C16.9597 4.37342 17.6664 5.53342 17.6664 6.40009V10.4001C17.6664 11.0268 18.0797 11.6801 18.6664 11.9334L26.1064 15.1468C26.573 15.3334 26.9997 15.9868 26.9997 16.4801V18.2001C26.9997 18.4134 26.9464 18.5334 26.9064 18.5601C26.8664 18.5868 26.733 18.5868 26.533 18.5068L19.9864 15.6801C19.7464 15.5734 19.493 15.5201 19.253 15.5201Z" fill="#868686"/>
</svg>
