<svg width="17" height="16" viewBox="0 0 17 16" fill="none" xmlns="http://www.w3.org/2000/svg">
<path d="M8.49999 14.1666C8.37332 14.1666 8.24665 14.1199 8.14665 14.0199L4.09999 9.97325C3.90665 9.77992 3.90665 9.45992 4.09999 9.26658C4.29332 9.07325 4.61332 9.07325 4.80665 9.26658L8.49999 12.9599L12.1933 9.26658C12.3867 9.07325 12.7067 9.07325 12.9 9.26658C13.0933 9.45992 13.0933 9.77992 12.9 9.97325L8.85332 14.0199C8.75332 14.1199 8.62665 14.1666 8.49999 14.1666Z" fill="white"/>
<path d="M8.5 14.0535C8.22667 14.0535 8 13.8268 8 13.5535V2.3335C8 2.06016 8.22667 1.8335 8.5 1.8335C8.77333 1.8335 9 2.06016 9 2.3335V13.5535C9 13.8268 8.77333 14.0535 8.5 14.0535Z" fill="white"/>
</svg>
