<svg width="16" height="17" viewBox="0 0 16 17" fill="none" xmlns="http://www.w3.org/2000/svg">
<path d="M10.7933 1.8335H5.20665C2.77998 1.8335 1.33331 3.28016 1.33331 5.70683V11.2868C1.33331 13.7202 2.77998 15.1668 5.20665 15.1668H10.7866C13.2133 15.1668 14.66 13.7202 14.66 11.2935V5.70683C14.6666 3.28016 13.22 1.8335 10.7933 1.8335ZM11.1866 6.96683L7.40665 10.7468C7.31331 10.8402 7.18665 10.8935 7.05331 10.8935C6.91998 10.8935 6.79331 10.8402 6.69998 10.7468L4.81331 8.86016C4.61998 8.66683 4.61998 8.34683 4.81331 8.1535C5.00665 7.96016 5.32665 7.96016 5.51998 8.1535L7.05331 9.68683L10.48 6.26016C10.6733 6.06683 10.9933 6.06683 11.1866 6.26016C11.38 6.4535 11.38 6.76683 11.1866 6.96683Z" fill="#00966D"/>
</svg>
