<svg width="32" height="32" viewBox="0 0 32 32" fill="none" xmlns="http://www.w3.org/2000/svg">
<path d="M6.10666 15.6665H10.6667C11.2133 15.6665 11.6667 15.2132 11.6667 14.6665V5.3465C11.6667 4.35984 11.28 3.43984 10.5867 2.74651C9.89333 2.05317 8.97333 1.6665 7.98666 1.6665H7.97333C6.30666 1.67984 4.73333 2.33317 3.53333 3.51984C2.33333 4.73317 1.68 6.33317 1.68 7.99984V11.2265C1.66667 13.8798 3.45333 15.6665 6.10666 15.6665ZM9.66666 13.6665H6.10666C4.56 13.6665 3.66666 12.7732 3.66666 11.2265V7.99984C3.66666 6.85317 4.12 5.75984 4.93333 4.93317C5.74667 4.13317 6.84 3.67984 7.97333 3.6665C7.97333 3.6665 7.97333 3.6665 7.98666 3.6665C8.42666 3.6665 8.85333 3.83984 9.17333 4.15984C9.49333 4.47984 9.66666 4.89317 9.66666 5.3465V13.6665Z" fill="#868686"/>
<path d="M20 31.1065C20.6267 31.1065 21.2133 30.8665 21.6533 30.4132L23.8667 28.1865C23.9867 28.0665 24.1733 28.0532 24.3067 28.1598L26.6 29.8665C27.3067 30.3998 28.24 30.4932 29.04 30.0932C29.84 29.6932 30.3333 28.8932 30.3333 27.9998V7.99984C30.3333 3.97317 28.0267 1.6665 24 1.6665H8C7.45333 1.6665 7 2.11984 7 2.6665C7 3.21317 7.45333 3.6665 8 3.6665C8.92 3.6665 9.66667 4.41317 9.66667 5.33317V27.9998C9.66667 28.8932 10.16 29.6932 10.96 30.0932C11.76 30.4932 12.6933 30.4132 13.4 29.8798L15.68 28.1732C15.8133 28.0665 16 28.0932 16.1067 28.1998L18.3467 30.4398C18.7867 30.8665 19.3733 31.1065 20 31.1065ZM24.12 26.0932C23.5067 26.0932 22.9067 26.3198 22.4533 26.7865L20.24 29.0132C20.16 29.0932 20.0533 29.1065 20 29.1065C19.9467 29.1065 19.84 29.0932 19.76 29.0132L17.52 26.7732C16.6933 25.9465 15.3867 25.8665 14.4667 26.5732L12.2 28.2665C12.0533 28.3732 11.92 28.3332 11.8533 28.2932C11.7867 28.2532 11.6667 28.1732 11.6667 27.9998V5.33317C11.6667 4.73317 11.52 4.15984 11.2667 3.6665H24C26.96 3.6665 28.3333 5.03984 28.3333 7.99984V27.9998C28.3333 28.1865 28.2133 28.2665 28.1467 28.3065C28.0667 28.3465 27.9333 28.3732 27.8 28.2665L25.52 26.5598C25.1067 26.2532 24.6133 26.0932 24.12 26.0932Z" fill="#868686"/>
<path d="M16 18.3467H20C20.5467 18.3467 21 17.8933 21 17.3467C21 16.8 20.5467 16.3467 20 16.3467H16C15.4533 16.3467 15 16.8 15 17.3467C15 17.8933 15.4533 18.3467 16 18.3467Z" fill="#868686"/>
<path d="M16 13.0132H20C20.5467 13.0132 21 12.5599 21 12.0132C21 11.4665 20.5467 11.0132 20 11.0132H16C15.4533 11.0132 15 11.4665 15 12.0132C15 12.5599 15.4533 13.0132 16 13.0132Z" fill="#868686"/>
<path d="M24.0397 13.3468C24.773 13.3468 25.373 12.7468 25.373 12.0135C25.373 11.2802 24.773 10.6802 24.0397 10.6802C23.3064 10.6802 22.7064 11.2802 22.7064 12.0135C22.7064 12.7468 23.3064 13.3468 24.0397 13.3468Z" fill="#868686"/>
<path d="M24.0397 18.6799C24.773 18.6799 25.373 18.0799 25.373 17.3465C25.373 16.6132 24.773 16.0132 24.0397 16.0132C23.3064 16.0132 22.7064 16.6132 22.7064 17.3465C22.7064 18.0799 23.3064 18.6799 24.0397 18.6799Z" fill="#868686"/>
</svg>
