<svg width="32" height="32" viewBox="0 0 32 32" fill="none" xmlns="http://www.w3.org/2000/svg">
<path d="M9.33334 27.6668H22.6667C28.5467 27.6668 30.3333 25.8802 30.3333 20.0002V19.3335C30.3333 18.7868 29.88 18.3335 29.3333 18.3335C28.0533 18.3335 27 17.2802 27 16.0002C27 14.7202 28.0533 13.6668 29.3333 13.6668C29.88 13.6668 30.3333 13.2135 30.3333 12.6668V12.0002C30.3333 6.12016 28.5467 4.3335 22.6667 4.3335H9.33334C3.45333 4.3335 1.66667 6.12016 1.66667 12.0002V13.3335C1.66667 13.8802 2.12 14.3335 2.66667 14.3335C3.94667 14.3335 5 15.3868 5 16.6668C5 17.9468 3.94667 19.0002 2.66667 19.0002C2.12 19.0002 1.66667 19.4535 1.66667 20.0002C1.66667 25.8802 3.45333 27.6668 9.33334 27.6668ZM28.3333 20.2135C28.3067 24.8002 27.36 25.6668 22.6667 25.6668H9.33334C4.88 25.6668 3.8 24.8802 3.68 20.8802C5.58667 20.4268 7 18.7068 7 16.6668C7 14.6268 5.57334 12.9068 3.66667 12.4535V12.0002C3.66667 7.24016 4.56 6.3335 9.33334 6.3335H22.6667C27.36 6.3335 28.3067 7.20016 28.3333 11.7868C26.4267 12.2402 25 13.9602 25 16.0002C25 18.0402 26.4267 19.7602 28.3333 20.2135Z" fill="#868686"/>
<path d="M18.6667 9.66683C19.2133 9.66683 19.6667 9.2135 19.6667 8.66683V5.3335C19.6667 4.78683 19.2133 4.3335 18.6667 4.3335C18.12 4.3335 17.6667 4.78683 17.6667 5.3335V8.66683C17.6667 9.2135 18.12 9.66683 18.6667 9.66683Z" fill="#868686"/>
<path d="M18.6667 19.4402C19.2133 19.4402 19.6667 18.9869 19.6667 18.4402V13.5469C19.6667 13.0002 19.2133 12.5469 18.6667 12.5469C18.12 12.5469 17.6667 13.0002 17.6667 13.5469V18.4402C17.6667 19.0002 18.12 19.4402 18.6667 19.4402Z" fill="#868686"/>
<path d="M18.6667 27.6668C19.2133 27.6668 19.6667 27.2135 19.6667 26.6668V23.3335C19.6667 22.7868 19.2133 22.3335 18.6667 22.3335C18.12 22.3335 17.6667 22.7868 17.6667 23.3335V26.6668C17.6667 27.2135 18.12 27.6668 18.6667 27.6668Z" fill="#868686"/>
</svg>
