<svg width="16" height="17" viewBox="0 0 16 17" fill="none" xmlns="http://www.w3.org/2000/svg">
<path d="M8 15.6667C11.4933 15.6667 14.3333 12.8267 14.3333 9.33333C14.3333 5.84 11.4933 3 8 3C4.50667 3 1.66667 5.84 1.66667 9.33333C1.66667 12.8267 4.50667 15.6667 8 15.6667ZM8 4C10.94 4 13.3333 6.39333 13.3333 9.33333C13.3333 12.2733 10.94 14.6667 8 14.6667C5.06 14.6667 2.66667 12.2733 2.66667 9.33333C2.66667 6.39333 5.06 4 8 4Z" fill="#868686"/>
<path d="M8 9.66659C8.27333 9.66659 8.5 9.43992 8.5 9.16659V5.83325C8.5 5.55992 8.27333 5.33325 8 5.33325C7.72667 5.33325 7.5 5.55992 7.5 5.83325V9.16659C7.5 9.43992 7.72667 9.66659 8 9.66659Z" fill="#868686"/>
<path d="M6 2.33325H10C10.2733 2.33325 10.5 2.10659 10.5 1.83325C10.5 1.55992 10.2733 1.33325 10 1.33325H6C5.72667 1.33325 5.5 1.55992 5.5 1.83325C5.5 2.10659 5.72667 2.33325 6 2.33325Z" fill="#868686"/>
</svg>
