<svg width="32" height="32" viewBox="0 0 32 32" fill="none" xmlns="http://www.w3.org/2000/svg">
<path d="M16 30.3332C16.9333 30.3332 17.88 29.9732 18.5867 29.2665L20.8667 27.0132C21.4267 26.4532 22.2 26.1465 22.9867 26.1465H24C26.76 26.1465 29 23.9198 29 21.1865V6.6265C29 3.89317 26.76 1.6665 24 1.6665H8C5.24 1.6665 3 3.89317 3 6.6265V21.1732C3 23.9065 5.24 26.1332 8 26.1332H9.01335C9.80001 26.1332 10.5733 26.4532 11.1333 26.9998L13.4133 29.2532C14.12 29.9732 15.0667 30.3332 16 30.3332ZM24 3.6665C25.6533 3.6665 27 4.99984 27 6.6265V21.1732C27 22.8132 25.6533 24.1332 24 24.1332H22.9867C21.6667 24.1332 20.3867 24.6665 19.4534 25.5865L17.1733 27.8398C16.52 28.4798 15.4666 28.4798 14.8133 27.8398L12.5334 25.5865C11.6 24.6665 10.32 24.1332 9 24.1332H8C6.34667 24.1332 5 22.7998 5 21.1732V6.6265C5 4.9865 6.34667 3.6665 8 3.6665H24Z" fill="#868686"/>
<path d="M15.9069 12.9334C15.9336 12.9334 15.9736 12.9334 16.0002 12.9334C16.0402 12.9334 16.0935 12.9334 16.1335 12.9334C18.0802 12.8667 19.6003 11.2934 19.6003 9.3334C19.6003 7.34673 17.9869 5.7334 16.0002 5.7334C14.0136 5.7334 12.4002 7.34673 12.4002 9.3334C12.4136 11.2934 13.9335 12.8667 15.8802 12.9334C15.8802 12.9334 15.8936 12.9334 15.9069 12.9334ZM16.0002 7.7334C16.8802 7.7334 17.6003 8.4534 17.6003 9.3334C17.6003 10.2001 16.9202 10.9067 16.0669 10.9334C16.0669 10.9201 15.9869 10.9201 15.8936 10.9334C15.0536 10.8801 14.4002 10.1867 14.4002 9.3334C14.4002 8.4534 15.1202 7.7334 16.0002 7.7334Z" fill="#868686"/>
<path d="M16 22.2666C17.52 22.2666 19.04 21.8666 20.2266 21.0799C21.3466 20.3333 22 19.2533 22 18.1066C22 16.9599 21.36 15.8666 20.2266 15.1199C17.8533 13.5466 14.1467 13.5466 11.7867 15.1199C10.6667 15.8666 10.0133 16.9599 10.0133 18.0933C10.0133 19.2399 10.6534 20.3199 11.7867 21.0799C12.96 21.8799 14.48 22.2666 16 22.2666ZM19.12 16.7866C19.6934 17.1733 20 17.6399 20 18.1066C20 18.5733 19.68 19.0399 19.12 19.4266C17.4267 20.5599 14.5866 20.5599 12.8933 19.4266C12.32 19.0399 12 18.5733 12.0133 18.1066C12.0133 17.6399 12.3333 17.1733 12.8933 16.7866C14.5733 15.6533 17.4267 15.6533 19.12 16.7866Z" fill="#868686"/>
</svg>
