<svg width="16" height="17" viewBox="0 0 16 17" fill="none" xmlns="http://www.w3.org/2000/svg">
<path d="M5 6.25337C5.27333 6.25337 5.5 6.0267 5.5 5.75337V4.83337C5.5 4.13337 5.8 3.45337 6.32 2.98004C6.84667 2.50004 7.52667 2.28004 8.24667 2.3467C9.44667 2.46004 10.5 3.6867 10.5 4.9667V5.61337C10.5 5.8867 10.7267 6.11337 11 6.11337C11.2733 6.11337 11.5 5.8867 11.5 5.61337V4.96004C11.5 3.1667 10.0533 1.51337 8.34 1.3467C7.34 1.25337 6.38 1.5667 5.64667 2.24004C4.92 2.90004 4.5 3.8467 4.5 4.83337V5.75337C4.5 6.0267 4.72667 6.25337 5 6.25337Z" fill="#ADADAD"/>
<path d="M6 15.6666H10C13.08 15.6666 13.6533 14.2333 13.8 12.8399L14.3 8.84659C14.3733 8.12659 14.4 7.09325 13.7 6.31992C13.1 5.65325 12.1067 5.33325 10.6667 5.33325H5.33333C3.88667 5.33325 2.89333 5.65992 2.3 6.31992C1.60667 7.09325 1.62666 8.12659 1.7 8.83325L2.2 12.8399C2.34666 14.2333 2.92 15.6666 6 15.6666ZM10.6667 6.33325C11.7933 6.33325 12.5667 6.55325 12.96 6.99325C13.2867 7.35325 13.3933 7.90659 13.3067 8.73325L12.8067 12.7266C12.6933 13.7933 12.4 14.6733 10 14.6733H6C3.6 14.6733 3.30667 13.7999 3.19333 12.7399L2.69333 8.73325C2.60667 7.91992 2.71333 7.36659 3.04 6.99992C3.43333 6.55325 4.20667 6.33325 5.33333 6.33325H10.6667Z" fill="#ADADAD"/>
<path d="M5.72 9.26668C6.09333 9.26668 6.39333 8.96668 6.39333 8.60002C6.39333 8.23335 6.09333 7.93335 5.72667 7.93335C5.36 7.93335 5.06 8.23335 5.06 8.60002C5.06 8.96668 5.35333 9.26668 5.72 9.26668Z" fill="#ADADAD"/>
<path d="M10.3867 9.26668C10.76 9.26668 11.06 8.96668 11.06 8.60002C11.06 8.23335 10.76 7.93335 10.3933 7.93335C10.0267 7.93335 9.72666 8.23335 9.72666 8.60002C9.72666 8.96668 10.02 9.26668 10.3867 9.26668Z" fill="#ADADAD"/>
</svg>

