<svg width="101" height="29" viewBox="0 0 101 29" fill="none" xmlns="http://www.w3.org/2000/svg">
<path d="M88.4586 23.6591V24.0007H88.239C88.0389 24.0007 88.0194 24.0105 88.0194 24.1227C88.0194 24.2349 88.0389 24.2447 88.239 24.2447H88.4586V25.1719V26.0991H88.6294H88.8002V25.1719V24.2447H89.0198C89.2198 24.2447 89.2394 24.2349 89.2394 24.1227C89.2394 24.0105 89.2198 24.0007 89.0198 24.0007H88.8002V23.6591V23.3175H88.6294H88.4586V23.6591Z" fill="black"/>
<path d="M98.7065 24.7083V26.0991H98.8528H98.9992V24.7083V23.3175H98.8528H98.7065V24.7083Z" fill="black"/>
<path d="M90.1909 23.9861C90.1422 24.0007 90.0494 24.0446 89.986 24.0837C89.8835 24.152 89.8738 24.152 89.8738 24.0788C89.8738 24.0251 89.8298 24.0007 89.7274 24.0007H89.581V25.0499V26.0991H89.7225H89.864L89.8835 25.2988C89.8982 24.5326 89.903 24.4887 90.0153 24.3716C90.0787 24.3033 90.1909 24.2349 90.269 24.2203C90.3764 24.1959 90.4105 24.1617 90.4105 24.069C90.4105 23.9519 90.3764 23.9421 90.1909 23.9861Z" fill="black"/>
<path d="M91.5181 24.0202C90.6837 24.2447 90.4202 25.2792 91.0594 25.8404C91.24 26.0014 91.6353 26.1478 91.8793 26.1478C92.1428 26.1478 92.5136 26.0405 92.6503 25.9234C92.8308 25.7721 92.8504 25.777 92.8504 25.9526C92.8504 26.0844 92.865 26.099 92.9968 26.099H93.1432V25.0499V24.0007H93.0016C92.8748 24.0007 92.8552 24.0202 92.8406 24.152L92.826 24.3032L92.6893 24.1959C92.4063 23.9714 91.9573 23.9031 91.5181 24.0202ZM92.2355 24.2447C92.3038 24.2691 92.4453 24.3715 92.5527 24.4691C92.9284 24.8059 92.9284 25.2938 92.5478 25.6354C92.3185 25.8453 92.1769 25.9038 91.9085 25.9038C91.523 25.899 91.0936 25.6062 91.0155 25.289C90.957 25.0645 91.0253 24.7424 91.1668 24.557C91.3962 24.2544 91.889 24.1129 92.2355 24.2447Z" fill="black"/>
<path d="M96.642 24.0202C96.3687 24.0934 96.2077 24.2056 96.0027 24.4594C95.8759 24.6107 95.8515 24.6936 95.8368 24.9718C95.8222 25.2353 95.8368 25.3426 95.9198 25.4988C96.1833 26.0161 96.8323 26.2601 97.4667 26.0746C97.6961 26.0112 97.8034 25.9429 97.9986 25.7428L98.2426 25.489L98.0572 25.4744C97.9059 25.4598 97.8522 25.4793 97.7692 25.5915C97.5253 25.8989 96.9543 25.9965 96.559 25.7916C96.3346 25.6794 96.1198 25.4207 96.1198 25.2646C96.1198 25.1767 96.1833 25.1718 97.1934 25.1718H98.267V24.9913C98.267 24.5814 97.9205 24.1568 97.4765 24.0251C97.1788 23.9372 96.9592 23.9372 96.642 24.0202ZM97.4716 24.2983C97.6717 24.3959 97.9254 24.718 97.9254 24.8693C97.9254 24.9132 97.6765 24.9279 97.0226 24.9279C96.3687 24.9279 96.1198 24.9132 96.1198 24.8693C96.1198 24.84 96.1735 24.7229 96.2418 24.6107C96.4663 24.2203 97.0226 24.0788 97.4716 24.2983Z" fill="black"/>
<path d="M99.9362 24.0446C99.6629 24.1763 99.5458 24.4155 99.6287 24.6936C99.6873 24.8888 99.8386 24.9913 100.229 25.1182C100.517 25.2109 100.658 25.3475 100.658 25.5378C100.658 25.8697 100.195 26.0307 99.9508 25.7867C99.8874 25.7233 99.819 25.611 99.7995 25.5427C99.7751 25.4451 99.741 25.4158 99.6287 25.4158C99.4628 25.4158 99.4579 25.4402 99.5653 25.7086C99.6824 26.0014 99.8874 26.1234 100.244 26.1234C100.736 26.1185 101 25.8941 101 25.4841C101 25.2353 100.771 25.0157 100.395 24.9083C100.102 24.8205 99.8776 24.6497 99.8776 24.5131C99.8776 24.3715 100.102 24.1959 100.283 24.1959C100.453 24.1959 100.658 24.3423 100.658 24.4643C100.658 24.5131 100.707 24.5374 100.805 24.5374C100.966 24.5374 100.985 24.474 100.893 24.2739C100.766 23.986 100.302 23.8787 99.9362 24.0446Z" fill="black"/>
<path d="M93.9143 25.0498C94.3876 26.099 94.3876 26.1039 94.534 26.0893C94.6707 26.0746 94.6999 26.0258 95.1538 25.0742C95.4124 24.5228 95.6271 24.0592 95.6271 24.0348C95.632 24.0153 95.5588 24.0007 95.4758 24.0007C95.3148 24.0007 95.3148 24.0055 94.9488 24.8107C94.7487 25.2548 94.5682 25.6305 94.5535 25.6403C94.5389 25.6501 94.3583 25.289 94.1534 24.84C93.7825 24.0299 93.7825 24.0251 93.6117 24.0104L93.4458 23.9958L93.9143 25.0498Z" fill="black"/>
<path d="M30.4049 13.8065H31.1111C31.8582 13.8065 32.4295 13.6464 32.825 13.3262C33.2268 12.9997 33.4277 12.5352 33.4277 11.9325C33.4277 11.3109 33.2331 10.8495 32.8439 10.5482C32.4609 10.2405 31.8771 10.0867 31.0923 10.0867H30.4049V13.8065ZM30.4049 21.3872H27.721V7.67596H31.13C31.9963 7.67596 32.6775 7.72305 33.1735 7.81722C33.6757 7.91139 34.0807 8.06206 34.3883 8.26924C34.9533 8.6522 35.3959 9.15758 35.7161 9.78538C36.0425 10.4132 36.2058 11.0849 36.2058 11.8006C36.2058 13.1127 35.7726 14.1612 34.9062 14.9459C34.0398 15.7307 32.8721 16.1231 31.4031 16.1231H30.4049V21.3872Z" fill="#04C3F9"/>
<path d="M39.9903 16.1419C39.9903 17.1024 40.254 17.8652 40.7813 18.4302C41.3087 18.989 42.0244 19.2684 42.9284 19.2684C43.8199 19.2684 44.5293 18.9827 45.0567 18.4114C45.5903 17.8338 45.8571 17.0585 45.8571 16.0854C45.8571 15.2127 45.5777 14.497 45.019 13.9383C44.4665 13.3733 43.7697 13.0908 42.9284 13.0908C42.062 13.0908 41.3558 13.3764 40.8096 13.9477C40.2634 14.5127 39.9903 15.2441 39.9903 16.1419ZM37.5042 16.1607C37.5042 15.4325 37.636 14.7419 37.8997 14.089C38.1697 13.4298 38.5589 12.8459 39.0674 12.3374C39.5885 11.8163 40.1755 11.4177 40.8284 11.1414C41.4813 10.8589 42.1594 10.7177 42.8625 10.7177C43.6096 10.7177 44.297 10.8432 44.9248 11.0944C45.5589 11.3392 46.1396 11.7096 46.667 12.2056C47.2069 12.7266 47.6244 13.3293 47.9194 14.0136C48.2145 14.6917 48.362 15.3885 48.362 16.1042C48.362 16.8953 48.2333 17.6172 47.976 18.2701C47.7185 18.9231 47.3325 19.5132 46.8177 20.0406C46.3029 20.5742 45.7159 20.9791 45.0567 21.2554C44.3975 21.5253 43.6818 21.6603 42.9096 21.6603C42.1311 21.6603 41.4217 21.5222 40.7813 21.2459C40.141 20.9697 39.5571 20.5553 39.0298 20.0029C38.5275 19.463 38.1477 18.8697 37.8903 18.2231C37.6329 17.5701 37.5042 16.8827 37.5042 16.1607Z" fill="#04C3F9"/>
<path d="M58.4937 14.7105C58.2049 14.1706 57.8345 13.7657 57.3825 13.4957C56.9367 13.2257 56.4062 13.0908 55.791 13.0908C54.9748 13.0908 54.2905 13.3858 53.7381 13.976C53.1919 14.5661 52.9188 15.3069 52.9188 16.1984C52.9188 17.0773 53.1981 17.8087 53.7569 18.3926C54.3219 18.9764 55.0282 19.2684 55.8757 19.2684C56.5286 19.2684 57.0717 19.1302 57.5049 18.854C57.9381 18.5715 58.2614 18.1509 58.4748 17.5921H61.0457C60.7318 18.8603 60.1197 19.8553 59.2094 20.5773C58.299 21.2993 57.1941 21.6603 55.8946 21.6603C55.1286 21.6603 54.4192 21.5253 53.7663 21.2554C53.1134 20.9791 52.5233 20.5742 51.9959 20.0406C51.5062 19.5383 51.1233 18.9513 50.847 18.2796C50.5708 17.6015 50.4327 16.9141 50.4327 16.2172C50.4327 15.489 50.5582 14.8078 50.8094 14.1737C51.0605 13.5396 51.4309 12.9683 51.9206 12.4598C52.4605 11.8885 53.0694 11.4553 53.7475 11.1603C54.4255 10.8652 55.1538 10.7177 55.9322 10.7177C57.2004 10.7177 58.299 11.0787 59.2282 11.8006C60.1573 12.5226 60.7695 13.4926 61.0645 14.7105H58.4937Z" fill="#04C3F9"/>
<path d="M66.2145 21.3872H63.8885V7.67596H66.2145V15.8311L69.5764 11.0284H72.2979L68.71 15.9441L73.0042 21.3872H69.9813L66.2145 16.1231V21.3872Z" fill="#04C3F9"/>
<path d="M81.8551 15.0589C81.6479 14.3683 81.2995 13.8441 80.8098 13.4863C80.3264 13.1222 79.7143 12.9401 78.9735 12.9401C78.3331 12.9401 77.7587 13.1347 77.2502 13.524C76.7416 13.9132 76.3995 14.4248 76.2237 15.0589H81.8551ZM76.139 16.9706C76.2206 17.7177 76.5156 18.3078 77.0242 18.741C77.539 19.1679 78.2013 19.3814 79.0112 19.3814C79.5511 19.3814 80.0345 19.2684 80.4614 19.0423C80.8946 18.8163 81.2367 18.4993 81.4878 18.0912H84.0869C83.6475 19.2213 82.9883 20.1002 82.1094 20.728C81.2367 21.3495 80.2259 21.6603 79.0771 21.6603C78.3049 21.6603 77.5923 21.5253 76.9394 21.2554C76.2928 20.9791 75.712 20.5742 75.1972 20.0406C74.7076 19.532 74.3277 18.945 74.0578 18.2796C73.7878 17.6078 73.6529 16.9204 73.6529 16.2172C73.6529 15.4953 73.7753 14.8172 74.0201 14.1831C74.2712 13.5428 74.6385 12.9683 75.1219 12.4598C75.6493 11.9011 76.2457 11.471 76.9112 11.1697C77.5766 10.8683 78.2641 10.7177 78.9735 10.7177C79.8712 10.7177 80.7094 10.9217 81.4878 11.3298C82.2663 11.7379 82.9286 12.3123 83.4748 13.0531C83.8076 13.4988 84.0524 13.9979 84.2094 14.5504C84.3726 15.1029 84.4542 15.737 84.4542 16.4527C84.4542 16.5092 84.4511 16.597 84.4448 16.7163C84.4385 16.8293 84.4354 16.9141 84.4354 16.9706H76.139Z" fill="#04C3F9"/>
<path d="M87.862 21.3872V13.1755H86.28V11.0284H87.862V7.67596H90.2728V11.0284H91.8643V13.1755H90.2728V21.3872H87.862Z" fill="#04C3F9"/>
<path d="M95.7618 17.95V18.0912C95.7618 18.5495 95.878 18.9231 96.1103 19.2118C96.3425 19.4944 96.6439 19.6356 97.0143 19.6356C97.3659 19.6356 97.6515 19.5289 97.8712 19.3154C98.0972 19.102 98.2103 18.8289 98.2103 18.4962C98.2103 18.1885 98.1286 17.9374 97.9654 17.7428C97.8022 17.5419 97.5103 17.341 97.0896 17.1401C96.8511 17.0334 96.4995 16.8858 96.0349 16.6975C95.5703 16.5092 95.2721 16.3616 95.1403 16.2549C94.7573 15.941 94.4748 15.5926 94.2928 15.2096C94.1107 14.8204 94.0197 14.3778 94.0197 13.8818C94.0197 13.0092 94.3242 12.2715 94.9331 11.6688C95.5484 11.0661 96.2923 10.7648 97.165 10.7648C98.0878 10.7648 98.8161 11.0316 99.3497 11.5652C99.8896 12.0988 100.185 12.8459 100.235 13.8065H98.069V13.75C98.069 13.4172 97.9811 13.1567 97.8053 12.9683C97.6358 12.78 97.3972 12.6858 97.0896 12.6858C96.8197 12.6858 96.5937 12.78 96.4116 12.9683C96.2358 13.1504 96.1479 13.3796 96.1479 13.6558C96.1479 14.1078 96.6125 14.5284 97.5416 14.9177C97.7865 15.0181 97.9748 15.0966 98.1067 15.1531C98.9981 15.5549 99.6071 15.9881 99.9336 16.4527C100.26 16.911 100.423 17.5325 100.423 18.3172C100.423 19.284 100.097 20.0845 99.4439 20.7186C98.791 21.3464 97.9685 21.6603 96.9766 21.6603C95.9784 21.6603 95.1717 21.3275 94.5564 20.6621C93.9475 19.9966 93.6147 19.0957 93.5582 17.9594L95.7618 17.95Z" fill="#04C3F9"/>
<path d="M38.6098 0.0533743C37.4435 0.321768 35.9356 1.24407 34.1447 2.78123C33.0516 3.72305 30.192 6.70466 30.192 6.89986C30.192 6.93402 30.2213 6.96329 30.2603 6.96329C30.2994 6.96329 30.3628 6.97793 30.4019 6.99257C30.4507 7.00721 30.7386 6.72906 31.2705 6.14835C33.647 3.56201 35.6868 1.81501 37.3655 0.921994C38.3756 0.385207 39.254 0.219291 39.7712 0.468164C40.8009 0.965914 40.757 3.01547 39.6444 6.0654C39.2052 7.27561 38.8001 8.17839 37.9413 9.88147L37.1215 11.5114L37.1995 11.6626C37.2776 11.809 37.2825 11.809 37.3508 11.7163C37.5997 11.3796 38.6586 9.3398 39.1417 8.26135C40.6496 4.8991 41.1864 2.34692 40.6789 0.990313C40.5471 0.629201 40.2153 0.272969 39.8932 0.131453C39.576 -0.0100641 39.0246 -0.0393438 38.6098 0.0533743Z" fill="black"/>
<path d="M3.46012 13.966C1.57649 17.9821 0.0149232 21.3004 0.000283489 21.3492C-0.0192361 21.3932 0.873784 20.5148 1.98152 19.3973L3.99691 17.3575H6.9102H9.8235L12.2634 19.2655C13.6005 20.3098 14.7327 21.2077 14.7766 21.2614C14.8205 21.3102 14.8839 21.3541 14.923 21.359C14.962 21.3639 15.5476 21.3688 16.2259 21.3639L17.4556 21.359V16.2595V11.16H16.1381H14.8205L14.8107 16.0643L14.7961 20.9735L10.8727 13.8196C8.71088 9.88639 6.9346 6.67054 6.91996 6.67054C6.90532 6.67054 5.34864 9.95471 3.46012 13.966ZM6.96388 15.0737L8.04234 15.7715L6.64181 15.7862C5.87079 15.7911 5.23152 15.7862 5.21688 15.7715C5.20224 15.7618 5.29496 15.4787 5.42672 15.1518C5.5536 14.82 5.67559 14.4979 5.69999 14.4344C5.72927 14.3661 5.77319 14.332 5.81223 14.3466C5.85127 14.3612 6.36854 14.6882 6.96388 15.0737Z" fill="black"/>
<path d="M14.8205 9.01288V10.1353H16.1381H17.4557V9.01288V7.89051H16.1381H14.8205V9.01288Z" fill="black"/>
<path d="M24.961 11.0625C24.2486 11.1845 23.5703 11.5114 23.0725 11.9701C22.8871 12.1409 22.7212 12.2824 22.7065 12.2824C22.6919 12.2824 22.6773 12.0287 22.6773 11.7212V11.1601H21.4085H20.1397V16.2595V21.359H20.6277H21.1108L20.9986 21.6616C20.1056 24.043 19.8372 25.9608 20.2422 27.0392C20.3739 27.3954 20.7058 27.7565 21.0279 27.9029C21.2474 28.0005 21.3597 28.0201 21.7745 28.0152C22.1893 28.0152 22.3308 27.9908 22.7114 27.859C25.0928 27.0441 28.4599 24.0771 31.9783 19.6755C32.8225 18.6214 33.9205 17.1477 33.9791 16.9915C33.9986 16.9378 33.9596 16.9281 33.818 16.933C33.6424 16.9476 33.6082 16.9769 33.2276 17.4795C30.3387 21.3005 28.0598 23.7746 25.6637 25.6924C23.6825 27.2734 21.9989 27.9713 21.1498 27.5614C20.13 27.0685 20.169 25.0141 21.2474 22.0373L21.4866 21.3834L22.1795 21.3688L22.8724 21.3541V19.8365V18.314L23.336 17.4502C24.0436 16.118 24.4779 15.3909 26.0102 12.9559C26.142 12.746 26.1469 12.7216 26.0737 12.6484C26.0297 12.6045 25.9956 12.5411 25.9956 12.5118C25.9907 12.4776 25.9273 12.5313 25.8492 12.624L25.7028 12.7899V11.9018V11.0137L25.449 11.0185C25.3075 11.0234 25.0879 11.0429 24.961 11.0625ZM25.0489 13.805C24.5902 14.5174 23.8484 15.7618 23.3019 16.7475L22.8676 17.5283L22.8871 16.3571C22.9066 15.4592 22.931 15.1176 22.9944 14.898C23.1945 14.1953 23.4385 13.8781 24.0095 13.6C24.395 13.4146 24.922 13.273 25.249 13.2633L25.4051 13.2584L25.0489 13.805Z" fill="black"/>
</svg>
